<?xml version="1.0" encoding="UTF-8"?>
<svg xmlns="http://www.w3.org/2000/svg" xmlns:xlink="http://www.w3.org/1999/xlink"
     width="100" height="100" viewBox="0 0 100 100">
<defs>
</defs>
<path d="M3.8,0.0 Q4.440993044899,2.070869066649489,2.6870057685088806,2.6870057685088806 T2.326828918379971e-16,3.8 T-2.68700576850888,2.6870057685088806 T-3.8,4.653657836759942e-16 T-2.687005768508881,-2.68700576850888 T-6.980486755139912e-16,-3.8 T2.6870057685088797,-2.687005768508881 T3.8,-9.307315673519883e-16" fill="black" fill-opacity="1.0" close="True" transform="translate(0.0,100.0)" />
<path d="M4.5,0.0 Q4.980374511916464,2.3223867753866108,3.1819805153394642,3.1819805153394642 T2.755455298081545e-16,4.5 T-3.181980515339464,3.1819805153394642 T-4.5,5.51091059616309e-16 T-3.1819805153394647,-3.181980515339464 T-8.266365894244633e-16,-4.5 T3.181980515339463,-3.1819805153394647 T4.5,-1.102182119232618e-15" fill="black" fill-opacity="1.0" close="True" transform="translate(0.0,75.0)" />
<path d="M2.5,0.0 Q1.8939479664769783,0.8831624409153015,1.7677669529663689,1.7677669529663689 T1.5308084989341916e-16,2.5 T-1.7677669529663687,1.7677669529663689 T-2.5,3.061616997868383e-16 T-1.7677669529663693,-1.7677669529663687 T-4.592425496802574e-16,-2.5 T1.7677669529663684,-1.7677669529663693 T2.5,-6.123233995736766e-16" fill="black" fill-opacity="1.0" close="True" transform="translate(0.0,50.0)" />
<path d="M4.2,0.0 Q4.378033477506079,2.0415105382200447,2.9698484809835,2.9698484809835 T2.571758278209442e-16,4.2 T-2.9698484809834995,2.9698484809835 T-4.2,5.143516556418884e-16 T-2.9698484809835004,-2.9698484809834995 T-7.715274834628325e-16,-4.2 T2.969848480983499,-2.9698484809835004 T4.2,-1.0287033112837768e-15" fill="black" fill-opacity="1.0" close="True" transform="translate(0.0,25.0)" />
<path d="M2.25,0.0 Q1.6234869401089433,0.7570443930874259,1.5909902576697321,1.5909902576697321 T1.3777276490407724e-16,2.25 T-1.590990257669732,1.5909902576697321 T-2.25,2.755455298081545e-16 T-1.5909902576697323,-1.590990257669732 T-4.1331829471223167e-16,-2.25 T1.5909902576697315,-1.5909902576697323 T2.25,-5.51091059616309e-16" fill="black" fill-opacity="1.0" close="True" transform="translate(0.0,0.0)" />
<path d="M2.5,0.0 Q1.9089873678066192,0.8901754289293795,1.7677669529663689,1.7677669529663689 T1.5308084989341916e-16,2.5 T-1.7677669529663687,1.7677669529663689 T-2.5,3.061616997868383e-16 T-1.7677669529663693,-1.7677669529663687 T-4.592425496802574e-16,-2.5 T1.7677669529663684,-1.7677669529663693 T2.5,-6.123233995736766e-16" fill="black" fill-opacity="1.0" close="True" transform="translate(25.0,100.0)" />
<path d="M4.5,0.0 Q2.631115220175759,1.2269091766561315,3.1819805153394642,3.1819805153394642 T2.755455298081545e-16,4.5 T-3.181980515339464,3.1819805153394642 T-4.5,5.51091059616309e-16 T-3.1819805153394647,-3.181980515339464 T-8.266365894244633e-16,-4.5 T3.181980515339463,-3.1819805153394647 T4.5,-1.102182119232618e-15" fill="black" fill-opacity="1.0" close="True" transform="translate(25.0,75.0)" />
<path d="M4.2,0.0 Q4.827619917042221,2.251156137978387,2.9698484809835,2.9698484809835 T2.571758278209442e-16,4.2 T-2.9698484809834995,2.9698484809835 T-4.2,5.143516556418884e-16 T-2.9698484809835004,-2.9698484809834995 T-7.715274834628325e-16,-4.2 T2.969848480983499,-2.9698484809835004 T4.2,-1.0287033112837768e-15" fill="black" fill-opacity="1.0" close="True" transform="translate(25.0,50.0)" />
<path d="M7.0,0.0 Q4.291018786427615,2.0009349213981653,4.949747468305833,4.949747468305833 T4.286263797015736e-16,7.0 T-4.949747468305832,4.949747468305833 T-7.0,8.572527594031472e-16 T-4.949747468305834,-4.949747468305832 T-1.2858791391047208e-15,-7.0 T4.949747468305832,-4.949747468305834 T7.0,-1.7145055188062944e-15" fill="black" fill-opacity="1.0" close="True" transform="translate(25.0,25.0)" />
<path d="M2.25,0.0 Q1.9630781142635159,0.9153983582375508,1.5909902576697321,1.5909902576697321 T1.3777276490407724e-16,2.25 T-1.590990257669732,1.5909902576697321 T-2.25,2.755455298081545e-16 T-1.5909902576697323,-1.590990257669732 T-4.1331829471223167e-16,-2.25 T1.5909902576697315,-1.5909902576697323 T2.25,-5.51091059616309e-16" fill="black" fill-opacity="1.0" close="True" transform="translate(25.0,0.0)" />
<path d="M3.8,0.0 Q3.267522464092317,1.523670748199739,2.6870057685088806,2.6870057685088806 T2.326828918379971e-16,3.8 T-2.68700576850888,2.6870057685088806 T-3.8,4.653657836759942e-16 T-2.687005768508881,-2.68700576850888 T-6.980486755139912e-16,-3.8 T2.6870057685088797,-2.687005768508881 T3.8,-9.307315673519883e-16" fill="black" fill-opacity="1.0" close="True" transform="translate(50.0,100.0)" />
<path d="M2.25,0.0 Q1.6970408480580281,0.791343143651312,1.5909902576697321,1.5909902576697321 T1.3777276490407724e-16,2.25 T-1.590990257669732,1.5909902576697321 T-2.25,2.755455298081545e-16 T-1.5909902576697323,-1.590990257669732 T-4.1331829471223167e-16,-2.25 T1.5909902576697315,-1.5909902576697323 T2.25,-5.51091059616309e-16" fill="black" fill-opacity="1.0" close="True" transform="translate(50.0,75.0)" />
<path d="M2.0,0.0 Q1.5288784450975277,0.7129277273370838,1.4142135623730951,1.4142135623730951 T1.2246467991473532e-16,2.0 T-1.414213562373095,1.4142135623730951 T-2.0,2.4492935982947064e-16 T-1.4142135623730954,-1.414213562373095 T-3.6739403974420594e-16,-2.0 T1.4142135623730947,-1.4142135623730954 T2.0,-4.898587196589413e-16" fill="black" fill-opacity="1.0" close="True" transform="translate(50.0,50.0)" />
<path d="M4.5,0.0 Q2.6528911280993084,1.2370634492841608,3.1819805153394642,3.1819805153394642 T2.755455298081545e-16,4.5 T-3.181980515339464,3.1819805153394642 T-4.5,5.51091059616309e-16 T-3.1819805153394647,-3.181980515339464 T-8.266365894244633e-16,-4.5 T3.181980515339463,-3.1819805153394647 T4.5,-1.102182119232618e-15" fill="black" fill-opacity="1.0" close="True" transform="translate(50.0,25.0)" />
<path d="M7.0,0.0 Q6.630013374735671,3.09162601030931,4.949747468305833,4.949747468305833 T4.286263797015736e-16,7.0 T-4.949747468305832,4.949747468305833 T-7.0,8.572527594031472e-16 T-4.949747468305834,-4.949747468305832 T-1.2858791391047208e-15,-7.0 T4.949747468305832,-4.949747468305834 T7.0,-1.7145055188062944e-15" fill="black" fill-opacity="1.0" close="True" transform="translate(50.0,0.0)" />
<path d="M2.0,0.0 Q1.3429977353462204,0.6262501288767626,1.4142135623730951,1.4142135623730951 T1.2246467991473532e-16,2.0 T-1.414213562373095,1.4142135623730951 T-2.0,2.4492935982947064e-16 T-1.4142135623730954,-1.414213562373095 T-3.6739403974420594e-16,-2.0 T1.4142135623730947,-1.4142135623730954 T2.0,-4.898587196589413e-16" fill="black" fill-opacity="1.0" close="True" transform="translate(75.0,100.0)" />
<path d="M2.5,0.0 Q3.15272921720109,1.4701417780698822,1.7677669529663689,1.7677669529663689 T1.5308084989341916e-16,2.5 T-1.7677669529663687,1.7677669529663689 T-2.5,3.061616997868383e-16 T-1.7677669529663693,-1.7677669529663687 T-4.592425496802574e-16,-2.5 T1.7677669529663684,-1.7677669529663693 T2.5,-6.123233995736766e-16" fill="black" fill-opacity="1.0" close="True" transform="translate(75.0,75.0)" />
<path d="M2.25,0.0 Q2.652970661915931,1.2371005365119343,1.5909902576697321,1.5909902576697321 T1.3777276490407724e-16,2.25 T-1.590990257669732,1.5909902576697321 T-2.25,2.755455298081545e-16 T-1.5909902576697323,-1.590990257669732 T-4.1331829471223167e-16,-2.25 T1.5909902576697315,-1.5909902576697323 T2.25,-5.51091059616309e-16" fill="black" fill-opacity="1.0" close="True" transform="translate(75.0,50.0)" />
<path d="M4.5,0.0 Q2.8013931842256534,1.3063110953076391,3.1819805153394642,3.1819805153394642 T2.755455298081545e-16,4.5 T-3.181980515339464,3.1819805153394642 T-4.5,5.51091059616309e-16 T-3.1819805153394647,-3.181980515339464 T-8.266365894244633e-16,-4.5 T3.181980515339463,-3.1819805153394647 T4.5,-1.102182119232618e-15" fill="black" fill-opacity="1.0" close="True" transform="translate(75.0,25.0)" />
<path d="M4.5,0.0 Q5.566734688720948,2.5958110162676604,3.1819805153394642,3.1819805153394642 T2.755455298081545e-16,4.5 T-3.181980515339464,3.1819805153394642 T-4.5,5.51091059616309e-16 T-3.1819805153394647,-3.181980515339464 T-8.266365894244633e-16,-4.5 T3.181980515339463,-3.1819805153394647 T4.5,-1.102182119232618e-15" fill="black" fill-opacity="1.0" close="True" transform="translate(75.0,0.0)" />
<path d="M7.0,0.0 Q8.880795154459811,4.141182791030414,4.949747468305833,4.949747468305833 T4.286263797015736e-16,7.0 T-4.949747468305832,4.949747468305833 T-7.0,8.572527594031472e-16 T-4.949747468305834,-4.949747468305832 T-1.2858791391047208e-15,-7.0 T4.949747468305832,-4.949747468305834 T7.0,-1.7145055188062944e-15" fill="black" fill-opacity="1.0" close="True" transform="translate(100.0,100.0)" />
<path d="M4.2,0.0 Q4.8950310984242495,2.282590488102102,2.9698484809835,2.9698484809835 T2.571758278209442e-16,4.2 T-2.9698484809834995,2.9698484809835 T-4.2,5.143516556418884e-16 T-2.9698484809835004,-2.9698484809834995 T-7.715274834628325e-16,-4.2 T2.969848480983499,-2.9698484809835004 T4.2,-1.0287033112837768e-15" fill="black" fill-opacity="1.0" close="True" transform="translate(100.0,75.0)" />
<path d="M4.2,0.0 Q2.8100341885810276,1.3103404618127006,2.9698484809835,2.9698484809835 T2.571758278209442e-16,4.2 T-2.9698484809834995,2.9698484809835 T-4.2,5.143516556418884e-16 T-2.9698484809835004,-2.9698484809834995 T-7.715274834628325e-16,-4.2 T2.969848480983499,-2.9698484809835004 T4.2,-1.0287033112837768e-15" fill="black" fill-opacity="1.0" close="True" transform="translate(100.0,50.0)" />
<path d="M2.25,0.0 Q1.438663771307638,0.6708599340709032,1.5909902576697321,1.5909902576697321 T1.3777276490407724e-16,2.25 T-1.590990257669732,1.5909902576697321 T-2.25,2.755455298081545e-16 T-1.5909902576697323,-1.590990257669732 T-4.1331829471223167e-16,-2.25 T1.5909902576697315,-1.5909902576697323 T2.25,-5.51091059616309e-16" fill="black" fill-opacity="1.0" close="True" transform="translate(100.0,25.0)" />
<path d="M3.8,0.0 Q4.536857640274023,2.1155714616187926,2.6870057685088806,2.6870057685088806 T2.326828918379971e-16,3.8 T-2.68700576850888,2.6870057685088806 T-3.8,4.653657836759942e-16 T-2.687005768508881,-2.68700576850888 T-6.980486755139912e-16,-3.8 T2.6870057685088797,-2.687005768508881 T3.8,-9.307315673519883e-16" fill="black" fill-opacity="1.0" close="True" transform="translate(100.0,0.0)" />
<path d="M4.2,0.0 Q2.5813272962671556,1.2036926864539115,2.9698484809835,2.9698484809835 T2.571758278209442e-16,4.2 T-2.9698484809834995,2.9698484809835 T-4.2,5.143516556418884e-16 T-2.9698484809835004,-2.9698484809834995 T-7.715274834628325e-16,-4.2 T2.969848480983499,-2.9698484809835004 T4.2,-1.0287033112837768e-15" fill="black" fill-opacity="1.0" close="True" transform="translate(12.5,87.5)" />
<path d="M3.8,0.0 Q3.5514242263673577,1.6560563141122902,2.6870057685088806,2.6870057685088806 T2.326828918379971e-16,3.8 T-2.68700576850888,2.6870057685088806 T-3.8,4.653657836759942e-16 T-2.687005768508881,-2.68700576850888 T-6.980486755139912e-16,-3.8 T2.6870057685088797,-2.687005768508881 T3.8,-9.307315673519883e-16" fill="black" fill-opacity="1.0" close="True" transform="translate(12.5,62.5)" />
<path d="M2.5,0.0 Q2.3617391303135418,1.1012970430295306,1.7677669529663689,1.7677669529663689 T1.5308084989341916e-16,2.5 T-1.7677669529663687,1.7677669529663689 T-2.5,3.061616997868383e-16 T-1.7677669529663693,-1.7677669529663687 T-4.592425496802574e-16,-2.5 T1.7677669529663684,-1.7677669529663693 T2.5,-6.123233995736766e-16" fill="black" fill-opacity="1.0" close="True" transform="translate(12.5,37.5)" />
<path d="M2.5,0.0 Q2.6387396148204436,1.2304644902677442,1.7677669529663689,1.7677669529663689 T1.5308084989341916e-16,2.5 T-1.7677669529663687,1.7677669529663689 T-2.5,3.061616997868383e-16 T-1.7677669529663693,-1.7677669529663687 T-4.592425496802574e-16,-2.5 T1.7677669529663684,-1.7677669529663693 T2.5,-6.123233995736766e-16" fill="black" fill-opacity="1.0" close="True" transform="translate(12.5,12.5)" />
<path d="M2.5,0.0 Q1.5204590680125751,0.7090017073254756,1.7677669529663689,1.7677669529663689 T1.5308084989341916e-16,2.5 T-1.7677669529663687,1.7677669529663689 T-2.5,3.061616997868383e-16 T-1.7677669529663693,-1.7677669529663687 T-4.592425496802574e-16,-2.5 T1.7677669529663684,-1.7677669529663693 T2.5,-6.123233995736766e-16" fill="black" fill-opacity="1.0" close="True" transform="translate(37.5,87.5)" />
<path d="M3.8,0.0 Q3.1864018289612868,1.485843574803742,2.6870057685088806,2.6870057685088806 T2.326828918379971e-16,3.8 T-2.68700576850888,2.6870057685088806 T-3.8,4.653657836759942e-16 T-2.687005768508881,-2.68700576850888 T-6.980486755139912e-16,-3.8 T2.6870057685088797,-2.687005768508881 T3.8,-9.307315673519883e-16" fill="black" fill-opacity="1.0" close="True" transform="translate(37.5,62.5)" />
<path d="M7.0,0.0 Q5.925879160285078,2.763282833742044,4.949747468305833,4.949747468305833 T4.286263797015736e-16,7.0 T-4.949747468305832,4.949747468305833 T-7.0,8.572527594031472e-16 T-4.949747468305834,-4.949747468305832 T-1.2858791391047208e-15,-7.0 T4.949747468305832,-4.949747468305834 T7.0,-1.7145055188062944e-15" fill="black" fill-opacity="1.0" close="True" transform="translate(37.5,37.5)" />
<path d="M4.5,0.0 Q4.492234602281991,2.094763397272967,3.1819805153394642,3.1819805153394642 T2.755455298081545e-16,4.5 T-3.181980515339464,3.1819805153394642 T-4.5,5.51091059616309e-16 T-3.1819805153394647,-3.181980515339464 T-8.266365894244633e-16,-4.5 T3.181980515339463,-3.1819805153394647 T4.5,-1.102182119232618e-15" fill="black" fill-opacity="1.0" close="True" transform="translate(37.5,12.5)" />
<path d="M7.0,0.0 Q4.861132953137755,2.266783523357759,4.949747468305833,4.949747468305833 T4.286263797015736e-16,7.0 T-4.949747468305832,4.949747468305833 T-7.0,8.572527594031472e-16 T-4.949747468305834,-4.949747468305832 T-1.2858791391047208e-15,-7.0 T4.949747468305832,-4.949747468305834 T7.0,-1.7145055188062944e-15" fill="black" fill-opacity="1.0" close="True" transform="translate(62.5,87.5)" />
<path d="M4.5,0.0 Q2.9388691549586636,1.370417193272734,3.1819805153394642,3.1819805153394642 T2.755455298081545e-16,4.5 T-3.181980515339464,3.1819805153394642 T-4.5,5.51091059616309e-16 T-3.1819805153394647,-3.181980515339464 T-8.266365894244633e-16,-4.5 T3.181980515339463,-3.1819805153394647 T4.5,-1.102182119232618e-15" fill="black" fill-opacity="1.0" close="True" transform="translate(62.5,62.5)" />
<path d="M4.2,0.0 Q4.295618033496759,2.0030795855282544,2.9698484809835,2.9698484809835 T2.571758278209442e-16,4.2 T-2.9698484809834995,2.9698484809835 T-4.2,5.143516556418884e-16 T-2.9698484809835004,-2.9698484809834995 T-7.715274834628325e-16,-4.2 T2.969848480983499,-2.9698484809835004 T4.2,-1.0287033112837768e-15" fill="black" fill-opacity="1.0" close="True" transform="translate(62.5,37.5)" />
<path d="M2.5,0.0 Q2.6461616370034537,1.233925436050678,1.7677669529663689,1.7677669529663689 T1.5308084989341916e-16,2.5 T-1.7677669529663687,1.7677669529663689 T-2.5,3.061616997868383e-16 T-1.7677669529663693,-1.7677669529663687 T-4.592425496802574e-16,-2.5 T1.7677669529663684,-1.7677669529663693 T2.5,-6.123233995736766e-16" fill="black" fill-opacity="1.0" close="True" transform="translate(62.5,12.5)" />
<path d="M2.5,0.0 Q1.737287915136026,0.8101106592480604,1.7677669529663689,1.7677669529663689 T1.5308084989341916e-16,2.5 T-1.7677669529663687,1.7677669529663689 T-2.5,3.061616997868383e-16 T-1.7677669529663693,-1.7677669529663687 T-4.592425496802574e-16,-2.5 T1.7677669529663684,-1.7677669529663693 T2.5,-6.123233995736766e-16" fill="black" fill-opacity="1.0" close="True" transform="translate(87.5,87.5)" />
<path d="M4.5,0.0 Q5.046624490043049,2.3532796475396385,3.1819805153394642,3.1819805153394642 T2.755455298081545e-16,4.5 T-3.181980515339464,3.1819805153394642 T-4.5,5.51091059616309e-16 T-3.1819805153394647,-3.181980515339464 T-8.266365894244633e-16,-4.5 T3.181980515339463,-3.1819805153394647 T4.5,-1.102182119232618e-15" fill="black" fill-opacity="1.0" close="True" transform="translate(87.5,62.5)" />
<path d="M3.8,0.0 Q3.6653671344215333,1.7091887647304032,2.6870057685088806,2.6870057685088806 T2.326828918379971e-16,3.8 T-2.68700576850888,2.6870057685088806 T-3.8,4.653657836759942e-16 T-2.687005768508881,-2.68700576850888 T-6.980486755139912e-16,-3.8 T2.6870057685088797,-2.687005768508881 T3.8,-9.307315673519883e-16" fill="black" fill-opacity="1.0" close="True" transform="translate(87.5,37.5)" />
<path d="M2.25,0.0 Q2.0678789606112664,0.9642677954706323,1.5909902576697321,1.5909902576697321 T1.3777276490407724e-16,2.25 T-1.590990257669732,1.5909902576697321 T-2.25,2.755455298081545e-16 T-1.5909902576697323,-1.590990257669732 T-4.1331829471223167e-16,-2.25 T1.5909902576697315,-1.5909902576697323 T2.25,-5.51091059616309e-16" fill="black" fill-opacity="1.0" close="True" transform="translate(87.5,12.5)" />
</svg>