<?xml version="1.0" encoding="UTF-8"?>
<svg xmlns="http://www.w3.org/2000/svg" xmlns:xlink="http://www.w3.org/1999/xlink"
     width="100" height="100" viewBox="0 0 100 100">
<defs>
</defs>
<path d="M2.0,0.0 Q1.7051216448362205,0.7951112810729772,1.4142135623730951,1.4142135623730951 T1.2246467991473532e-16,2.0 T-1.414213562373095,1.4142135623730951 T-2.0,2.4492935982947064e-16 T-1.4142135623730954,-1.414213562373095 T-3.6739403974420594e-16,-2.0 T1.4142135623730947,-1.4142135623730954 T2.0,-4.898587196589413e-16" fill="black" fill-opacity="1.0" close="True" transform="translate(-1.6232004662075037,101.6232004662075)" />
<path d="M4.2,0.0 Q4.1135204967883325,1.9181661096299536,2.9698484809835,2.9698484809835 T2.571758278209442e-16,4.2 T-2.9698484809834995,2.9698484809835 T-4.2,5.143516556418884e-16 T-2.9698484809835004,-2.9698484809834995 T-7.715274834628325e-16,-4.2 T2.969848480983499,-2.9698484809835004 T4.2,-1.0287033112837768e-15" fill="black" fill-opacity="1.0" close="True" transform="translate(-0.32809649971299315,75.32809649971298)" />
<path d="M2.5,0.0 Q1.3909873969770803,0.6486280756074997,1.7677669529663689,1.7677669529663689 T1.5308084989341916e-16,2.5 T-1.7677669529663687,1.7677669529663689 T-2.5,3.061616997868383e-16 T-1.7677669529663693,-1.7677669529663687 T-4.592425496802574e-16,-2.5 T1.7677669529663684,-1.7677669529663693 T2.5,-6.123233995736766e-16" fill="black" fill-opacity="1.0" close="True" transform="translate(-0.18924470852211384,50.18924470852212)" />
<path d="M4.5,0.0 Q3.1237407470351557,1.4566242324333094,3.1819805153394642,3.1819805153394642 T2.755455298081545e-16,4.5 T-3.181980515339464,3.1819805153394642 T-4.5,5.51091059616309e-16 T-3.1819805153394647,-3.181980515339464 T-8.266365894244633e-16,-4.5 T3.181980515339463,-3.1819805153394647 T4.5,-1.102182119232618e-15" fill="black" fill-opacity="1.0" close="True" transform="translate(1.2243449940473612,23.775655005952643)" />
<path d="M4.5,0.0 Q3.962904028622735,1.8479324970800772,3.1819805153394642,3.1819805153394642 T2.755455298081545e-16,4.5 T-3.181980515339464,3.1819805153394642 T-4.5,5.51091059616309e-16 T-3.1819805153394647,-3.181980515339464 T-8.266365894244633e-16,-4.5 T3.181980515339463,-3.1819805153394647 T4.5,-1.102182119232618e-15" fill="black" fill-opacity="1.0" close="True" transform="translate(1.1738284129274668,-1.1738284129274632)" />
<path d="M3.8,0.0 Q4.3461441810543855,2.026640315071445,2.6870057685088806,2.6870057685088806 T2.326828918379971e-16,3.8 T-2.68700576850888,2.6870057685088806 T-3.8,4.653657836759942e-16 T-2.687005768508881,-2.68700576850888 T-6.980486755139912e-16,-3.8 T2.6870057685088797,-2.687005768508881 T3.8,-9.307315673519883e-16" fill="black" fill-opacity="1.0" close="True" transform="translate(24.866375870110247,100.13362412988975)" />
<path d="M7.0,0.0 Q7.527186730146292,3.509984816629899,4.949747468305833,4.949747468305833 T4.286263797015736e-16,7.0 T-4.949747468305832,4.949747468305833 T-7.0,8.572527594031472e-16 T-4.949747468305834,-4.949747468305832 T-1.2858791391047208e-15,-7.0 T4.949747468305832,-4.949747468305834 T7.0,-1.7145055188062944e-15" fill="black" fill-opacity="1.0" close="True" transform="translate(24.527516609993555,75.47248339000645)" />
<path d="M2.0,0.0 Q1.6988377990840133,0.7921810756760583,1.4142135623730951,1.4142135623730951 T1.2246467991473532e-16,2.0 T-1.414213562373095,1.4142135623730951 T-2.0,2.4492935982947064e-16 T-1.4142135623730954,-1.414213562373095 T-3.6739403974420594e-16,-2.0 T1.4142135623730947,-1.4142135623730954 T2.0,-4.898587196589413e-16" fill="black" fill-opacity="1.0" close="True" transform="translate(26.15448041976652,48.84551958023348)" />
<path d="M3.8,0.0 Q4.818649130623551,2.246972991571688,2.6870057685088806,2.6870057685088806 T2.326828918379971e-16,3.8 T-2.68700576850888,2.6870057685088806 T-3.8,4.653657836759942e-16 T-2.687005768508881,-2.68700576850888 T-6.980486755139912e-16,-3.8 T2.6870057685088797,-2.687005768508881 T3.8,-9.307315673519883e-16" fill="black" fill-opacity="1.0" close="True" transform="translate(24.73098763325288,25.26901236674712)" />
<path d="M4.5,0.0 Q3.6046295466012594,1.6808663623919478,3.1819805153394642,3.1819805153394642 T2.755455298081545e-16,4.5 T-3.181980515339464,3.1819805153394642 T-4.5,5.51091059616309e-16 T-3.1819805153394647,-3.181980515339464 T-8.266365894244633e-16,-4.5 T3.181980515339463,-3.1819805153394647 T4.5,-1.102182119232618e-15" fill="black" fill-opacity="1.0" close="True" transform="translate(24.42446699568029,0.5755330043197091)" />
<path d="M2.25,0.0 Q1.2932913883599766,0.6030716786181676,1.5909902576697321,1.5909902576697321 T1.3777276490407724e-16,2.25 T-1.590990257669732,1.5909902576697321 T-2.25,2.755455298081545e-16 T-1.5909902576697323,-1.590990257669732 T-4.1331829471223167e-16,-2.25 T1.5909902576697315,-1.5909902576697323 T2.25,-5.51091059616309e-16" fill="black" fill-opacity="1.0" close="True" transform="translate(48.155389277121344,101.84461072287864)" />
<path d="M3.8,0.0 Q4.274331068461815,1.9931533107135821,2.6870057685088806,2.6870057685088806 T2.326828918379971e-16,3.8 T-2.68700576850888,2.6870057685088806 T-3.8,4.653657836759942e-16 T-2.687005768508881,-2.68700576850888 T-6.980486755139912e-16,-3.8 T2.6870057685088797,-2.687005768508881 T3.8,-9.307315673519883e-16" fill="black" fill-opacity="1.0" close="True" transform="translate(49.15314955771865,75.84685044228135)" />
<path d="M4.2,0.0 Q3.8492577948363316,1.7949383879450038,2.9698484809835,2.9698484809835 T2.571758278209442e-16,4.2 T-2.9698484809834995,2.9698484809835 T-4.2,5.143516556418884e-16 T-2.9698484809835004,-2.9698484809834995 T-7.715274834628325e-16,-4.2 T2.969848480983499,-2.9698484809835004 T4.2,-1.0287033112837768e-15" fill="black" fill-opacity="1.0" close="True" transform="translate(50.02215351478951,49.97784648521049)" />
<path d="M2.0,0.0 Q1.2828606336232051,0.5982077378040744,1.4142135623730951,1.4142135623730951 T1.2246467991473532e-16,2.0 T-1.414213562373095,1.4142135623730951 T-2.0,2.4492935982947064e-16 T-1.4142135623730954,-1.414213562373095 T-3.6739403974420594e-16,-2.0 T1.4142135623730947,-1.4142135623730954 T2.0,-4.898587196589413e-16" fill="black" fill-opacity="1.0" close="True" transform="translate(49.31898764680466,25.681012353195342)" />
<path d="M2.25,0.0 Q1.8525298890929844,0.8638488742450888,1.5909902576697321,1.5909902576697321 T1.3777276490407724e-16,2.25 T-1.590990257669732,1.5909902576697321 T-2.25,2.755455298081545e-16 T-1.5909902576697323,-1.590990257669732 T-4.1331829471223167e-16,-2.25 T1.5909902576697315,-1.5909902576697323 T2.25,-5.51091059616309e-16" fill="black" fill-opacity="1.0" close="True" transform="translate(51.6997993366187,-1.699799336618696)" />
<path d="M4.5,0.0 Q4.979653281569338,2.322050460152452,3.1819805153394642,3.1819805153394642 T2.755455298081545e-16,4.5 T-3.181980515339464,3.1819805153394642 T-4.5,5.51091059616309e-16 T-3.1819805153394647,-3.181980515339464 T-8.266365894244633e-16,-4.5 T3.181980515339463,-3.1819805153394647 T4.5,-1.102182119232618e-15" fill="black" fill-opacity="1.0" close="True" transform="translate(76.12837672623897,98.87162327376103)" />
<path d="M2.25,0.0 Q1.3715457568494314,0.6395622899288835,1.5909902576697321,1.5909902576697321 T1.3777276490407724e-16,2.25 T-1.590990257669732,1.5909902576697321 T-2.25,2.755455298081545e-16 T-1.5909902576697323,-1.590990257669732 T-4.1331829471223167e-16,-2.25 T1.5909902576697315,-1.5909902576697323 T2.25,-5.51091059616309e-16" fill="black" fill-opacity="1.0" close="True" transform="translate(75.38188368921223,74.61811631078777)" />
<path d="M2.5,0.0 Q2.4831522042300334,1.1579128891969297,1.7677669529663689,1.7677669529663689 T1.5308084989341916e-16,2.5 T-1.7677669529663687,1.7677669529663689 T-2.5,3.061616997868383e-16 T-1.7677669529663693,-1.7677669529663687 T-4.592425496802574e-16,-2.5 T1.7677669529663684,-1.7677669529663693 T2.5,-6.123233995736766e-16" fill="black" fill-opacity="1.0" close="True" transform="translate(76.44035660922752,48.55964339077248)" />
<path d="M4.2,0.0 Q3.1354605151493242,1.4620892500567468,2.9698484809835,2.9698484809835 T2.571758278209442e-16,4.2 T-2.9698484809834995,2.9698484809835 T-4.2,5.143516556418884e-16 T-2.9698484809835004,-2.9698484809834995 T-7.715274834628325e-16,-4.2 T2.969848480983499,-2.9698484809835004 T4.2,-1.0287033112837768e-15" fill="black" fill-opacity="1.0" close="True" transform="translate(74.41885743647615,25.581142563523855)" />
<path d="M2.5,0.0 Q2.281688111130034,1.0639686397411483,1.7677669529663689,1.7677669529663689 T1.5308084989341916e-16,2.5 T-1.7677669529663687,1.7677669529663689 T-2.5,3.061616997868383e-16 T-1.7677669529663693,-1.7677669529663687 T-4.592425496802574e-16,-2.5 T1.7677669529663684,-1.7677669529663693 T2.5,-6.123233995736766e-16" fill="black" fill-opacity="1.0" close="True" transform="translate(75.07243209789961,-0.07243209789960758)" />
<path d="M7.0,0.0 Q5.96737591966875,2.782633090431266,4.949747468305833,4.949747468305833 T4.286263797015736e-16,7.0 T-4.949747468305832,4.949747468305833 T-7.0,8.572527594031472e-16 T-4.949747468305834,-4.949747468305832 T-1.2858791391047208e-15,-7.0 T4.949747468305832,-4.949747468305834 T7.0,-1.7145055188062944e-15" fill="black" fill-opacity="1.0" close="True" transform="translate(100.15488739159622,99.84511260840378)" />
<path d="M3.8,0.0 Q2.1759152630083363,1.014645950637135,2.6870057685088806,2.6870057685088806 T2.326828918379971e-16,3.8 T-2.68700576850888,2.6870057685088806 T-3.8,4.653657836759942e-16 T-2.687005768508881,-2.68700576850888 T-6.980486755139912e-16,-3.8 T2.6870057685088797,-2.687005768508881 T3.8,-9.307315673519883e-16" fill="black" fill-opacity="1.0" close="True" transform="translate(101.56720965670148,73.43279034329852)" />
<path d="M2.5,0.0 Q2.8120694844247676,1.3112895358512477,1.7677669529663689,1.7677669529663689 T1.5308084989341916e-16,2.5 T-1.7677669529663687,1.7677669529663689 T-2.5,3.061616997868383e-16 T-1.7677669529663693,-1.7677669529663687 T-4.592425496802574e-16,-2.5 T1.7677669529663684,-1.7677669529663693 T2.5,-6.123233995736766e-16" fill="black" fill-opacity="1.0" close="True" transform="translate(98.29562811870491,51.704371881295074)" />
<path d="M4.5,0.0 Q5.0049114985655985,2.333828560169149,3.1819805153394642,3.1819805153394642 T2.755455298081545e-16,4.5 T-3.181980515339464,3.1819805153394642 T-4.5,5.51091059616309e-16 T-3.1819805153394647,-3.181980515339464 T-8.266365894244633e-16,-4.5 T3.181980515339463,-3.1819805153394647 T4.5,-1.102182119232618e-15" fill="black" fill-opacity="1.0" close="True" transform="translate(99.84399669052564,25.156003309474343)" />
<path d="M2.0,0.0 Q2.5069504772745246,1.1690102061684398,1.4142135623730951,1.4142135623730951 T1.2246467991473532e-16,2.0 T-1.414213562373095,1.4142135623730951 T-2.0,2.4492935982947064e-16 T-1.4142135623730954,-1.414213562373095 T-3.6739403974420594e-16,-2.0 T1.4142135623730947,-1.4142135623730954 T2.0,-4.898587196589413e-16" fill="black" fill-opacity="1.0" close="True" transform="translate(100.75809768944944,-0.7580976894494427)" />
<path d="M2.25,0.0 Q2.2946696785668976,1.0700220440518136,1.5909902576697321,1.5909902576697321 T1.3777276490407724e-16,2.25 T-1.590990257669732,1.5909902576697321 T-2.25,2.755455298081545e-16 T-1.5909902576697323,-1.590990257669732 T-4.1331829471223167e-16,-2.25 T1.5909902576697315,-1.5909902576697323 T2.25,-5.51091059616309e-16" fill="black" fill-opacity="1.0" close="True" transform="translate(14.031761454466734,85.96823854553327)" />
<path d="M4.2,0.0 Q4.889578143031738,2.2800477332429963,2.9698484809835,2.9698484809835 T2.571758278209442e-16,4.2 T-2.9698484809834995,2.9698484809835 T-4.2,5.143516556418884e-16 T-2.9698484809835004,-2.9698484809834995 T-7.715274834628325e-16,-4.2 T2.969848480983499,-2.9698484809835004 T4.2,-1.0287033112837768e-15" fill="black" fill-opacity="1.0" close="True" transform="translate(12.603925055276084,62.396074944723914)" />
<path d="M2.5,0.0 Q3.066514669597729,1.4299392742780663,1.7677669529663689,1.7677669529663689 T1.5308084989341916e-16,2.5 T-1.7677669529663687,1.7677669529663689 T-2.5,3.061616997868383e-16 T-1.7677669529663693,-1.7677669529663687 T-4.592425496802574e-16,-2.5 T1.7677669529663684,-1.7677669529663693 T2.5,-6.123233995736766e-16" fill="black" fill-opacity="1.0" close="True" transform="translate(10.92733773801767,39.07266226198233)" />
<path d="M2.25,0.0 Q2.579347696506507,1.2027695839254393,1.5909902576697321,1.5909902576697321 T1.3777276490407724e-16,2.25 T-1.590990257669732,1.5909902576697321 T-2.25,2.755455298081545e-16 T-1.5909902576697323,-1.590990257669732 T-4.1331829471223167e-16,-2.25 T1.5909902576697315,-1.5909902576697323 T2.25,-5.51091059616309e-16" fill="black" fill-opacity="1.0" close="True" transform="translate(14.123004529719607,10.876995470280391)" />
<path d="M2.5,0.0 Q2.8548042756923535,1.3312170962889784,1.7677669529663689,1.7677669529663689 T1.5308084989341916e-16,2.5 T-1.7677669529663687,1.7677669529663689 T-2.5,3.061616997868383e-16 T-1.7677669529663693,-1.7677669529663687 T-4.592425496802574e-16,-2.5 T1.7677669529663684,-1.7677669529663693 T2.5,-6.123233995736766e-16" fill="black" fill-opacity="1.0" close="True" transform="translate(39.206821361462296,85.79317863853771)" />
<path d="M3.8,0.0 Q2.567214313990663,1.1971116947389773,2.6870057685088806,2.6870057685088806 T2.326828918379971e-16,3.8 T-2.68700576850888,2.6870057685088806 T-3.8,4.653657836759942e-16 T-2.687005768508881,-2.68700576850888 T-6.980486755139912e-16,-3.8 T2.6870057685088797,-2.687005768508881 T3.8,-9.307315673519883e-16" fill="black" fill-opacity="1.0" close="True" transform="translate(37.61339048221569,62.38660951778431)" />
<path d="M4.2,0.0 Q3.4292568748731163,1.5990887425340121,2.9698484809835,2.9698484809835 T2.571758278209442e-16,4.2 T-2.9698484809834995,2.9698484809835 T-4.2,5.143516556418884e-16 T-2.9698484809835004,-2.9698484809834995 T-7.715274834628325e-16,-4.2 T2.969848480983499,-2.9698484809835004 T4.2,-1.0287033112837768e-15" fill="black" fill-opacity="1.0" close="True" transform="translate(37.6683759240525,37.33162407594751)" />
<path d="M2.25,0.0 Q1.9769746951038827,0.921878440305584,1.5909902576697321,1.5909902576697321 T1.3777276490407724e-16,2.25 T-1.590990257669732,1.5909902576697321 T-2.25,2.755455298081545e-16 T-1.5909902576697323,-1.590990257669732 T-4.1331829471223167e-16,-2.25 T1.5909902576697315,-1.5909902576697323 T2.25,-5.51091059616309e-16" fill="black" fill-opacity="1.0" close="True" transform="translate(38.09197953981786,11.908020460182144)" />
<path d="M4.5,0.0 Q3.574774160015593,1.6669445669898733,3.1819805153394642,3.1819805153394642 T2.755455298081545e-16,4.5 T-3.181980515339464,3.1819805153394642 T-4.5,5.51091059616309e-16 T-3.1819805153394647,-3.181980515339464 T-8.266365894244633e-16,-4.5 T3.181980515339463,-3.1819805153394647 T4.5,-1.102182119232618e-15" fill="black" fill-opacity="1.0" close="True" transform="translate(62.279325148140934,87.72067485185906)" />
<path d="M3.8,0.0 Q3.3439740965474303,1.5593207298920095,2.6870057685088806,2.6870057685088806 T2.326828918379971e-16,3.8 T-2.68700576850888,2.6870057685088806 T-3.8,4.653657836759942e-16 T-2.687005768508881,-2.68700576850888 T-6.980486755139912e-16,-3.8 T2.6870057685088797,-2.687005768508881 T3.8,-9.307315673519883e-16" fill="black" fill-opacity="1.0" close="True" transform="translate(63.887664390772265,61.112335609227735)" />
<path d="M2.25,0.0 Q1.606187168818206,0.748977377250225,1.5909902576697321,1.5909902576697321 T1.3777276490407724e-16,2.25 T-1.590990257669732,1.5909902576697321 T-2.25,2.755455298081545e-16 T-1.5909902576697323,-1.590990257669732 T-4.1331829471223167e-16,-2.25 T1.5909902576697315,-1.5909902576697323 T2.25,-5.51091059616309e-16" fill="black" fill-opacity="1.0" close="True" transform="translate(64.25231705083777,35.747682949162225)" />
<path d="M2.25,0.0 Q1.624924625713315,0.7577147968947635,1.5909902576697321,1.5909902576697321 T1.3777276490407724e-16,2.25 T-1.590990257669732,1.5909902576697321 T-2.25,2.755455298081545e-16 T-1.5909902576697323,-1.590990257669732 T-4.1331829471223167e-16,-2.25 T1.5909902576697315,-1.5909902576697323 T2.25,-5.51091059616309e-16" fill="black" fill-opacity="1.0" close="True" transform="translate(64.45511435548808,10.544885644511908)" />
<path d="M2.5,0.0 Q2.227123479214943,1.0385247340147328,1.7677669529663689,1.7677669529663689 T1.5308084989341916e-16,2.5 T-1.7677669529663687,1.7677669529663689 T-2.5,3.061616997868383e-16 T-1.7677669529663693,-1.7677669529663687 T-4.592425496802574e-16,-2.5 T1.7677669529663684,-1.7677669529663693 T2.5,-6.123233995736766e-16" fill="black" fill-opacity="1.0" close="True" transform="translate(87.96350003585948,87.03649996414052)" />
<path d="M4.5,0.0 Q2.6977884367146467,1.2579994081220416,3.1819805153394642,3.1819805153394642 T2.755455298081545e-16,4.5 T-3.181980515339464,3.1819805153394642 T-4.5,5.51091059616309e-16 T-3.1819805153394647,-3.181980515339464 T-8.266365894244633e-16,-4.5 T3.181980515339463,-3.1819805153394647 T4.5,-1.102182119232618e-15" fill="black" fill-opacity="1.0" close="True" transform="translate(87.16942656906049,62.8305734309395)" />
<path d="M3.8,0.0 Q3.0188540212622597,1.4077147489666046,2.6870057685088806,2.6870057685088806 T2.326828918379971e-16,3.8 T-2.68700576850888,2.6870057685088806 T-3.8,4.653657836759942e-16 T-2.687005768508881,-2.68700576850888 T-6.980486755139912e-16,-3.8 T2.6870057685088797,-2.687005768508881 T3.8,-9.307315673519883e-16" fill="black" fill-opacity="1.0" close="True" transform="translate(86.87449571094518,38.125504289054824)" />
<path d="M7.0,0.0 Q6.159979267330492,2.872445506432226,4.949747468305833,4.949747468305833 T4.286263797015736e-16,7.0 T-4.949747468305832,4.949747468305833 T-7.0,8.572527594031472e-16 T-4.949747468305834,-4.949747468305832 T-1.2858791391047208e-15,-7.0 T4.949747468305832,-4.949747468305834 T7.0,-1.7145055188062944e-15" fill="black" fill-opacity="1.0" close="True" transform="translate(86.33455689688562,13.665443103114384)" />
<circle cx="-0.1801843386540376" cy="0.2811218671976128" r="8.4" fill="black" fill-opacity="1.0" />
<circle cx="6.472571018398297" cy="1.787531070817047" r="8.4" fill="black" fill-opacity="1.0" />
<circle cx="11.313557273835706" cy="5.240771246920065" r="8.4" fill="black" fill-opacity="1.0" />
<circle cx="24.71462286588148" cy="75.30187243196889" r="5.5" fill="black" fill-opacity="1.0" />
<circle cx="21.1073104514884" cy="72.60396010718685" r="5.5" fill="black" fill-opacity="1.0" />
<circle cx="19.649254106311606" cy="67.94627024692427" r="5.5" fill="black" fill-opacity="1.0" />
<circle cx="14.185643870690198" cy="66.94100442495345" r="5.5" fill="black" fill-opacity="1.0" />
<circle cx="25.18864527953622" cy="74.5321485592177" r="4.3" fill="black" fill-opacity="1.0" />
<circle cx="27.27022850552643" cy="77.81134170706986" r="4.3" fill="black" fill-opacity="1.0" />
<circle cx="30.733673158316584" cy="79.12508926043238" r="4.3" fill="black" fill-opacity="1.0" />
<circle cx="33.15848984495576" cy="81.91609547431955" r="4.3" fill="black" fill-opacity="1.0" />
<circle cx="35.644713442090314" cy="84.6197615690286" r="4.3" fill="black" fill-opacity="1.0" />
<circle cx="25.943579596457866" cy="49.174125311765216" r="7.0" fill="black" fill-opacity="1.0" />
<circle cx="20.453214552874815" cy="46.56257592079147" r="7.0" fill="black" fill-opacity="1.0" />
<circle cx="17.17061793702037" cy="40.5110904126188" r="7.0" fill="black" fill-opacity="1.0" />
<circle cx="25.072844104465318" cy="47.763883264932275" r="5.8" fill="black" fill-opacity="1.0" />
<circle cx="31.318628097577182" cy="46.333736921853486" r="5.8" fill="black" fill-opacity="1.0" />
<circle cx="32.231585112324986" cy="39.570763600410636" r="5.8" fill="black" fill-opacity="1.0" />
<circle cx="23.21209901328338" cy="26.38854585067049" r="5.5" fill="black" fill-opacity="1.0" />
<circle cx="22.527587794946488" cy="21.340359689368967" r="5.5" fill="black" fill-opacity="1.0" />
<circle cx="19.035348825190304" cy="18.36167697297303" r="5.5" fill="black" fill-opacity="1.0" />
<circle cx="17.127184016124556" cy="14.215414197977156" r="5.5" fill="black" fill-opacity="1.0" />
<circle cx="48.307690258243376" cy="76.57168119968124" r="4.3" fill="black" fill-opacity="1.0" />
<circle cx="47.134861395621" cy="72.90646726937288" r="4.3" fill="black" fill-opacity="1.0" />
<circle cx="45.8000211228072" cy="69.38014926608237" r="4.3" fill="black" fill-opacity="1.0" />
<circle cx="42.93092401203871" cy="67.16918322188775" r="4.3" fill="black" fill-opacity="1.0" />
<circle cx="39.58303008848618" cy="65.36870016210919" r="4.3" fill="black" fill-opacity="1.0" />
<circle cx="50.35726124106689" cy="49.65048814962278" r="8.4" fill="black" fill-opacity="1.0" />
<circle cx="47.04512848930944" cy="44.64792159271688" r="8.4" fill="black" fill-opacity="1.0" />
<circle cx="39.85970975489844" cy="43.42907099671108" r="8.4" fill="black" fill-opacity="1.0" />
<circle cx="51.4644675476277" cy="51.42016051804868" r="8.8" fill="black" fill-opacity="1.0" />
<circle cx="55.72199316706424" cy="46.190910446786376" r="8.8" fill="black" fill-opacity="1.0" />
<circle cx="57.852841659741664" cy="38.83498324876496" r="8.8" fill="black" fill-opacity="1.0" />
<circle cx="51.27600205816447" cy="24.085758625283663" r="7.0" fill="black" fill-opacity="1.0" />
<circle cx="47.18755766964201" cy="19.776890389594286" r="7.0" fill="black" fill-opacity="1.0" />
<circle cx="40.63163570719719" cy="17.47937821520394" r="7.0" fill="black" fill-opacity="1.0" />
<circle cx="53.7216676277964" cy="-3.8059839400100515" r="7.0" fill="black" fill-opacity="1.0" />
<circle cx="56.56824131454224" cy="1.7393755237091042" r="7.0" fill="black" fill-opacity="1.0" />
<circle cx="61.005229605259665" cy="5.627996629885409" r="7.0" fill="black" fill-opacity="1.0" />
<circle cx="75.24337382320913" cy="74.73599641042934" r="4.3" fill="black" fill-opacity="1.0" />
<circle cx="73.54250296832542" cy="71.52592982623803" r="4.3" fill="black" fill-opacity="1.0" />
<circle cx="70.5737485148201" cy="69.39490727878047" r="4.3" fill="black" fill-opacity="1.0" />
<circle cx="67.66602108290658" cy="67.21194712143516" r="4.3" fill="black" fill-opacity="1.0" />
<circle cx="64.95059221644601" cy="64.86532949541527" r="4.3" fill="black" fill-opacity="1.0" />
<circle cx="75.89318493564662" cy="49.08016872592534" r="4.3" fill="black" fill-opacity="1.0" />
<circle cx="73.06968697002499" cy="46.884874496208894" r="4.3" fill="black" fill-opacity="1.0" />
<circle cx="72.41734779429872" cy="42.62415325090102" r="4.3" fill="black" fill-opacity="1.0" />
<circle cx="69.18449190450461" cy="40.81828190428609" r="4.3" fill="black" fill-opacity="1.0" />
<circle cx="67.82715049944167" cy="37.228230467792294" r="4.3" fill="black" fill-opacity="1.0" />
<circle cx="76.06287377593696" cy="48.843439871843515" r="3.5" fill="black" fill-opacity="1.0" />
<circle cx="77.30758543503626" cy="51.630513488406045" r="3.5" fill="black" fill-opacity="1.0" />
<circle cx="80.9742534509214" cy="52.596728960581416" r="3.5" fill="black" fill-opacity="1.0" />
<circle cx="81.00863664672778" cy="56.29374318511395" r="3.5" fill="black" fill-opacity="1.0" />
<circle cx="84.13146514455484" cy="57.66882424767089" r="3.5" fill="black" fill-opacity="1.0" />
<circle cx="85.52962939176223" cy="60.34053022185166" r="3.5" fill="black" fill-opacity="1.0" />
<circle cx="76.44278645121848" cy="48.562073232763446" r="1.4" fill="black" fill-opacity="1.0" />
<circle cx="77.07720678656999" cy="47.29937736780265" r="1.4" fill="black" fill-opacity="1.0" />
<circle cx="78.49463691545041" cy="46.81969129637078" r="1.4" fill="black" fill-opacity="1.0" />
<circle cx="79.0493807629147" cy="45.47731894352274" r="1.4" fill="black" fill-opacity="1.0" />
<circle cx="79.8718219456465" cy="44.40264392594224" r="1.4" fill="black" fill-opacity="1.0" />
<circle cx="81.61927020814801" cy="44.25297598813146" r="1.4" fill="black" fill-opacity="1.0" />
<circle cx="82.11552463387426" cy="42.8521142135454" r="1.4" fill="black" fill-opacity="1.0" />
<circle cx="82.74900533836855" cy="41.5884787177274" r="1.4" fill="black" fill-opacity="1.0" />
<circle cx="84.2393383898292" cy="41.18169556887576" r="1.4" fill="black" fill-opacity="1.0" />
<circle cx="85.38371799139387" cy="40.42895897012811" r="1.4" fill="black" fill-opacity="1.0" />
<circle cx="85.62705165084495" cy="38.77517642926689" r="1.4" fill="black" fill-opacity="1.0" />
<circle cx="73.73845034344066" cy="26.032012850058774" r="4.0" fill="black" fill-opacity="1.0" />
<circle cx="73.20576417788781" cy="22.057254245624353" r="4.0" fill="black" fill-opacity="1.0" />
<circle cx="71.81328886458707" cy="18.652233057764008" r="4.0" fill="black" fill-opacity="1.0" />
<circle cx="68.391751015053" cy="16.591765764877632" r="4.0" fill="black" fill-opacity="1.0" />
<circle cx="66.93861657808912" cy="13.226940213933617" r="4.0" fill="black" fill-opacity="1.0" />
<circle cx="73.54447735843989" cy="1.1801645890849468" r="5.5" fill="black" fill-opacity="1.0" />
<circle cx="77.82513791217227" cy="3.413540106002411" r="5.5" fill="black" fill-opacity="1.0" />
<circle cx="79.01303997507215" cy="8.182317319851018" r="5.5" fill="black" fill-opacity="1.0" />
<circle cx="84.0442151352365" cy="9.800431085047586" r="5.5" fill="black" fill-opacity="1.0" />
<circle cx="101.00109309979072" cy="74.20157516029484" r="3.5" fill="black" fill-opacity="1.0" />
<circle cx="99.84247990449249" cy="70.74924070514311" r="3.5" fill="black" fill-opacity="1.0" />
<circle cx="96.33244943382664" cy="70.49012481542269" r="3.5" fill="black" fill-opacity="1.0" />
<circle cx="95.0111604789513" cy="67.25870362014572" r="3.5" fill="black" fill-opacity="1.0" />
<circle cx="91.45917878928691" cy="67.05655737709408" r="3.5" fill="black" fill-opacity="1.0" />
<circle cx="89.12181538910936" cy="65.20496264502623" r="3.5" fill="black" fill-opacity="1.0" />
<circle cx="99.38327013744484" cy="50.789560434472335" r="4.3" fill="black" fill-opacity="1.0" />
<circle cx="94.74648281069142" cy="50.05251663909129" r="4.3" fill="black" fill-opacity="1.0" />
<circle cx="93.14994382401434" cy="46.75833185911692" r="4.3" fill="black" fill-opacity="1.0" />
<circle cx="90.25172425852955" cy="44.558985521463626" r="4.3" fill="black" fill-opacity="1.0" />
<circle cx="89.19470132503322" cy="40.81101589988652" r="4.3" fill="black" fill-opacity="1.0" />
<circle cx="98.89842411581374" cy="26.26771201115428" r="4.3" fill="black" fill-opacity="1.0" />
<circle cx="97.377648663674" cy="22.5809672130183" r="4.3" fill="black" fill-opacity="1.0" />
<circle cx="94.86616428087329" cy="20.0589978837387" r="4.3" fill="black" fill-opacity="1.0" />
<circle cx="91.53091158006129" cy="18.505532117054987" r="4.3" fill="black" fill-opacity="1.0" />
<circle cx="89.34301183070238" cy="15.603124667690588" r="4.3" fill="black" fill-opacity="1.0" />
<circle cx="0.35405711206944734" cy="103.60045804448445" r="8.8" fill="black" fill-opacity="1.0" />
<circle cx="4.698961327137274" cy="97.50872097910279" r="8.8" fill="black" fill-opacity="1.0" />
<circle cx="8.44898640568218" cy="90.8221047771982" r="8.8" fill="black" fill-opacity="1.0" />
<circle cx="24.474756191102706" cy="99.74200445088222" r="4.0" fill="black" fill-opacity="1.0" />
<circle cx="28.14250919279608" cy="98.62960895545824" r="4.0" fill="black" fill-opacity="1.0" />
<circle cx="28.46776737830428" cy="94.17471864384909" r="4.0" fill="black" fill-opacity="1.0" />
<circle cx="32.78629195062799" cy="93.71309471905545" r="4.0" fill="black" fill-opacity="1.0" />
<circle cx="34.06782617259016" cy="90.21448044390029" r="4.0" fill="black" fill-opacity="1.0" />
<circle cx="37.92437552282279" cy="89.29088129701556" r="4.0" fill="black" fill-opacity="1.0" />
<circle cx="24.028761386247417" cy="1.052772569046656" r="4.0" fill="black" fill-opacity="1.0" />
<circle cx="26.094153434956475" cy="4.125042678993565" r="4.0" fill="black" fill-opacity="1.0" />
<circle cx="30.40403350211001" cy="4.490354738756435" r="4.0" fill="black" fill-opacity="1.0" />
<circle cx="32.50182127966244" cy="7.523554076989035" r="4.0" fill="black" fill-opacity="1.0" />
<circle cx="34.81246099248866" cy="10.300043976386686" r="4.0" fill="black" fill-opacity="1.0" />
<circle cx="47.47358997759818" cy="101.16281142335548" r="5.8" fill="black" fill-opacity="1.0" />
<circle cx="53.363030600503286" cy="99.99028411075079" r="5.8" fill="black" fill-opacity="1.0" />
<circle cx="55.20410242494175" cy="94.76938799967945" r="5.8" fill="black" fill-opacity="1.0" />
<circle cx="57.86084044810064" cy="90.36415808732855" r="5.8" fill="black" fill-opacity="1.0" />
<circle cx="50.818518248119005" cy="27.18054295450969" r="5.5" fill="black" fill-opacity="1.0" />
<circle cx="43.93257239877136" cy="28.061671586996823" r="5.5" fill="black" fill-opacity="1.0" />
<circle cx="42.235378103389735" cy="34.13155177344997" r="5.5" fill="black" fill-opacity="1.0" />
<circle cx="101.14108813487513" cy="26.453094753823834" r="5.8" fill="black" fill-opacity="1.0" />
<circle cx="96.64847426400323" cy="28.445231372742164" r="5.8" fill="black" fill-opacity="1.0" />
<circle cx="94.72819463014122" cy="33.00970222867039" r="5.8" fill="black" fill-opacity="1.0" />
<circle cx="91.42771491605504" cy="36.193973004374435" r="5.8" fill="black" fill-opacity="1.0" />
</svg>