<?xml version="1.0" encoding="UTF-8" standalone="no"?>
<!-- Created with Inkscape (http://www.inkscape.org/) -->

<svg
   width="160"
   height="100"
   viewBox="0 0 42.333329 26.458334"
   version="1.1"
   id="svg1"
   inkscape:version="1.3.2 (091e20e, 2023-11-25, custom)"
   sodipodi:docname="p2c_logo.svg"
   xml:space="preserve"
   xmlns:inkscape="http://www.inkscape.org/namespaces/inkscape"
   xmlns:sodipodi="http://sodipodi.sourceforge.net/DTD/sodipodi-0.dtd"
   xmlns="http://www.w3.org/2000/svg"
   xmlns:svg="http://www.w3.org/2000/svg"><sodipodi:namedview
     id="namedview1"
     pagecolor="#ffffff"
     bordercolor="#000000"
     borderopacity="0.25"
     inkscape:showpageshadow="2"
     inkscape:pageopacity="0.0"
     inkscape:pagecheckerboard="0"
     inkscape:deskcolor="#d1d1d1"
     inkscape:document-units="mm"
     inkscape:zoom="3.7311667"
     inkscape:cx="104.39094"
     inkscape:cy="94.47447"
     inkscape:window-width="2880"
     inkscape:window-height="1526"
     inkscape:window-x="-11"
     inkscape:window-y="-11"
     inkscape:window-maximized="1"
     inkscape:current-layer="layer1" /><defs
     id="defs1"><rect
       x="28.759512"
       y="52.238956"
       width="78.302261"
       height="45.723129"
       id="rect4" /></defs><g
     inkscape:label="Layer 1"
     inkscape:groupmode="layer"
     id="layer1"><path
       id="path1"
       style="display:none;fill:#20c997;fill-opacity:1;stroke:#087440;stroke-width:0.312;stroke-dasharray:none;stroke-opacity:1"
       d="M 2.7450521,1.065568 A 2.3499999,2.3499999 0 0 0 0.39480794,3.4158122 2.3499999,2.3499999 0 0 0 2.0618896,5.6627035 v 5.3195715 a 2.3499999,2.3499999 0 0 0 -1.66708166,2.246892 2.3499999,2.3499999 0 0 0 1.66708166,2.246891 v 5.459615 a 2.3499999,2.3499999 0 0 0 -1.66708166,2.247408 2.3499999,2.3499999 0 0 0 2.35024416,2.349727 2.3499999,2.3499999 0 0 0 2.3497274,-2.349727 2.3499999,2.3499999 0 0 0 -1.666565,-2.248442 v -5.458581 a 2.3499999,2.3499999 0 0 0 1.56993,-1.580782 h 6.0523435 a 2.3499999,2.3499999 0 0 0 2.253093,1.684135 2.3499999,2.3499999 0 0 0 2.350244,-2.350244 2.3499999,2.3499999 0 0 0 -1.667082,-2.248442 V 5.6627035 A 2.3499999,2.3499999 0 0 0 15.653825,3.4158122 2.3499999,2.3499999 0 0 0 13.303581,1.065568 2.3499999,2.3499999 0 0 0 11.050488,2.749703 H 4.9986613 A 2.3499999,2.3499999 0 0 0 2.7450521,1.065568 Z m 2.2530924,3.0163534 h 6.0523435 a 2.3499999,2.3499999 0 0 0 1.56993,1.5807821 v 5.3195715 a 2.3499999,2.3499999 0 0 0 -1.56993,1.580782 H 4.9986613 A 2.3499999,2.3499999 0 0 0 3.4282145,10.980725 V 5.6627035 a 2.3499999,2.3499999 0 0 0 1.56993,-1.5807821 z" /><text
       xml:space="preserve"
       transform="matrix(0.34147269,0,0,0.34147269,1.4049995,-4.0263452)"
       id="text3"
       style="font-size:37.3333px;white-space:pre;shape-inside:url(#rect4);display:inline;fill:#079bc6;fill-opacity:1;stroke:#021814;stroke-width:0.702838;stroke-dasharray:none;stroke-opacity:1"><tspan
         x="28.759766"
         y="86.298584"
         id="tspan2"><tspan
           style="font-weight:900;font-family:Arial;-inkscape-font-specification:'Arial Heavy'"
           id="tspan1">2</tspan></tspan></text><path
       id="path5"
       style="display:inline;fill:#20c997;fill-opacity:1;stroke:#087440;stroke-width:0.312;stroke-dasharray:none;stroke-opacity:1"
       d="M 25.291808,1.1482497 18.31704,13.229167 25.291808,25.310084 h 13.950053 l -2.525905,-4.070553 h -8.590212 l -4.625041,-8.010364 4.625041,-8.0103645 h 8.590212 l 2.525905,-4.0705528 z"
       sodipodi:nodetypes="ccccccccccc" /><path
       id="rect2"
       style="fill:#20c997;stroke:#087440;stroke-width:0.311999;stroke-opacity:1"
       d="m 19.220015,1.072286 c -1.012444,0.00158 -1.908169,0.6563532 -2.216918,1.6205729 l -10.4463307,0 C 6.2459001,1.7305246 5.3501127,1.0783028 4.3388139,1.0779704 3.0510772,1.077953 2.0071559,2.1218742 2.0071733,3.409611 c 0.00177,1.0078714 0.6509264,1.9005159 1.609204,2.2127848 v 5.3485112 c -0.9598647,0.311302 -1.6105451,1.204736 -1.6123046,2.213818 0.00176,1.009082 0.6524399,1.902516 1.6123046,2.213818 v 5.544881 c -0.9367356,0.324753 -1.5656617,1.206369 -1.5678629,2.197799 2.679e-4,1.287535 1.0441056,2.331141 2.3316406,2.331124 1.287535,1.7e-5 2.3313727,-1.043589 2.3316406,-2.331124 7.62e-5,-0.980721 -0.6135534,-1.856656 -1.5353068,-2.191597 v -5.596558 c 0.6268273,-0.243976 1.1177517,-0.746769 1.3466878,-1.379244 l 4.6130944,0 c 0.343099,0.902763 1.207235,1.500568 2.172994,1.503267 1.287737,1.8e-5 2.331658,-1.043903 2.331641,-2.33164 1.1e-5,-0.573289 -0.211187,-1.126487 -0.593246,-1.55391 l 3.449402,-5.9753463 c 0.233187,0.077645 0.477183,0.1179334 0.722953,0.1193725 1.287737,1.76e-5 2.331658,-1.0439037 2.331641,-2.3316406 1.7e-5,-1.2877369 -1.043904,-2.3316582 -2.331641,-2.3316406 z m -12.6622151,3.0421915 10.4452971,0 c 0.06861,0.2134264 0.167642,0.4158422 0.294038,0.6009969 l -3.545003,6.1412276 c -0.145918,-0.02838 -0.294215,-0.04275 -0.442867,-0.04289 -1.032992,2.02e-4 -1.942714,0.680075 -2.235522,1.670699 l -4.5143929,0 C 6.3463253,11.808612 5.8374657,11.266285 5.1764888,11.010697 V 5.5789876 C 5.8348104,5.3249829 6.342689,4.7865139 6.5577999,4.1144775 Z"
       sodipodi:nodetypes="cccccccccccccccccccccccccccccccccc" /><path
       id="path3"
       style="display:inline;fill:#b48d16;stroke:none;stroke-width:0.311999;stroke-opacity:1;fill-opacity:1"
       d="M 29.36875 6.628536 L 25.804626 12.802319 C 25.857518 12.757892 25.911451 12.714163 25.966374 12.671578 C 26.165048 12.521372 26.373848 12.378627 26.600444 12.256616 C 26.718248 12.196706 26.836694 12.138014 26.955461 12.079366 C 26.995251 12.059976 27.043657 12.042929 27.089819 12.058179 C 27.140779 12.073049 27.187446 12.098084 27.241748 12.105204 C 27.361582 12.124134 27.488571 12.116233 27.602966 12.081433 C 27.657286 12.065813 27.702284 12.035721 27.738875 12.000301 C 27.828705 11.920321 27.906096 11.831958 27.988472 11.747087 C 28.176371 11.56011 28.376007 11.380891 28.580168 11.205518 C 28.647888 11.149298 28.713125 11.090919 28.788424 11.041187 C 28.828714 11.019267 28.836322 11.075814 28.834932 11.097514 C 28.832932 11.200684 28.800616 11.301377 28.767236 11.400338 C 28.690506 11.601538 28.615256 11.803384 28.546578 12.006502 C 28.508738 12.113504 28.471649 12.221088 28.421521 12.324829 C 28.389011 12.382699 28.321362 12.420429 28.259257 12.456087 C 28.068731 12.55773 27.857288 12.628344 27.647408 12.698966 C 27.44065 12.772866 27.240729 12.859885 27.051062 12.959416 C 26.994482 12.991176 26.933861 13.020982 26.888798 13.063802 C 26.862328 13.092242 26.922082 13.10818 26.944092 13.12168 C 27.030092 13.15891 27.122727 13.184854 27.211776 13.216764 C 27.376155 13.272644 27.540441 13.328736 27.704769 13.384713 C 27.839624 13.283032 27.971834 13.179174 28.109912 13.080339 C 28.252173 12.979745 28.408616 12.884476 28.59412 12.844694 C 28.764935 12.806754 28.942727 12.806015 29.118119 12.795085 C 29.162649 12.792585 29.207429 12.790767 29.251961 12.788367 C 29.401446 12.627285 29.553017 12.46727 29.699996 12.304675 C 29.851734 12.133873 30.002051 11.96204 30.138212 11.782743 C 30.321322 11.533297 30.485786 11.275125 30.647742 11.016382 C 30.795069 10.776811 30.941855 10.536698 31.065287 10.288261 C 31.098857 10.221301 31.120723 10.149055 31.110763 10.076388 C 31.098673 9.9751085 31.079128 9.8742765 31.053918 9.7745972 C 31.050318 9.7558162 31.042578 9.721917 31.015678 9.748759 C 30.886161 9.8340269 30.766694 9.9286593 30.645675 10.021611 C 30.475353 10.154797 30.305651 10.288863 30.123743 10.411768 C 30.038663 10.472688 29.914805 10.487128 29.806449 10.467578 C 29.580416 10.426778 29.405449 10.248655 29.410091 10.060885 C 29.408391 10.015455 29.424818 9.9683455 29.466418 9.9363444 C 29.531158 9.8844985 29.610724 9.8465415 29.681392 9.8004354 C 29.760812 9.7528504 29.835713 9.7009167 29.913936 9.652124 C 29.947936 9.633089 29.981146 9.6092962 30.022974 9.6035482 C 30.080604 9.5826402 30.121811 9.541784 30.175936 9.516215 C 30.358912 9.4213341 30.560034 9.3523953 30.762463 9.2898722 C 30.864872 9.2550023 30.96819 9.2201187 31.06167 9.1710164 C 31.10366 9.1481375 31.146254 9.1233798 31.194995 9.1110718 C 31.228785 9.1126818 31.254842 9.1342526 31.281812 9.1487956 C 31.412529 9.2329985 31.529676 9.330324 31.640963 9.4309489 C 31.701133 9.4868198 31.761508 9.5441187 31.801676 9.6112996 C 31.913278 9.7724606 32.070838 9.9198486 32.27865 10.001973 C 32.34761 10.027613 32.419928 10.047388 32.493107 10.063468 C 32.529297 10.071868 32.570998 10.069139 32.599561 10.047449 C 32.634411 10.026109 32.666544 9.9889935 32.715833 9.9952555 C 32.777812 10.006773 32.829287 10.040976 32.891016 10.05365 C 33.032315 10.09012 33.186965 10.063214 33.314246 10.006624 C 33.489128 9.9296834 33.629147 9.8112835 33.754012 9.6877808 C 33.853722 9.5892249 33.905442 9.4666647 33.953483 9.3472331 C 34.013313 9.1949854 34.072597 9.0421808 34.118848 8.8867961 C 34.126548 8.8555951 34.127965 8.8238357 34.140035 8.7932617 C 34.183625 8.6635093 34.237264 8.5359778 34.301265 8.4118896 C 34.324305 8.3627327 34.362838 8.3180765 34.415987 8.2873494 C 34.499717 8.2375905 34.604846 8.2066059 34.709509 8.2119019 C 34.802579 8.2256358 34.888231 8.2606503 34.969442 8.2987183 C 35.121844 8.3754932 35.283782 8.4394501 35.443831 8.5049072 C 35.637038 8.5817211 35.831383 8.6562016 36.028292 8.7265991 C 36.085042 8.7444641 36.142325 8.7686618 36.204508 8.7689738 C 36.253488 8.7661838 36.277221 8.7265948 36.315613 8.7074788 C 36.343813 8.6908079 36.375554 8.6755209 36.411214 8.6744059 C 36.489184 8.6539929 36.557702 8.6156815 36.626705 8.5808716 C 36.769674 8.5035737 36.909467 8.4213291 37.032882 8.3240397 C 37.112942 8.2566418 37.176227 8.176005 37.220984 8.0899455 C 37.244964 8.0338155 37.264092 7.9729674 37.318652 7.9302653 C 37.386919 7.875589 37.488299 7.868659 37.579618 7.8703206 L 36.862866 6.628536 L 29.36875 6.628536 z M 37.932052 8.4806193 C 37.907807 8.4981007 37.871677 8.4933472 37.841101 8.4956055 C 37.659288 8.5008655 37.477137 8.4992098 37.295398 8.5059408 C 37.224508 8.5089808 37.148625 8.5174882 37.09386 8.5576172 C 37.04014 8.5972851 36.98501 8.6374854 36.944515 8.6868083 C 36.898975 8.7468762 36.905591 8.8201556 36.903691 8.8878296 C 36.905491 8.9584255 36.899275 9.0347284 36.944515 9.0981527 C 36.987705 9.1528766 37.047222 9.1982077 37.110396 9.237679 C 37.138316 9.258884 37.175348 9.2637681 37.209098 9.2748861 C 37.365921 9.343528 37.501943 9.438049 37.645764 9.5224162 C 37.682884 9.5436392 37.71831 9.567829 37.757385 9.586495 C 37.810395 9.589795 37.861983 9.5754466 37.912931 9.5653076 C 37.996161 9.5452826 38.078031 9.5202042 38.163562 9.5069132 C 38.250592 9.4911593 38.339467 9.481985 38.428662 9.481075 C 38.454303 9.4794614 38.479571 9.4754298 38.505143 9.4733236 L 37.932052 8.4806193 z M 35.644853 9.1177897 C 35.459891 9.1134397 35.275686 9.1286401 35.091398 9.1389771 C 35.004238 9.146357 34.912908 9.1487259 34.831982 9.1787679 C 34.752803 9.2108259 34.711988 9.2778107 34.663 9.3337972 C 34.487894 9.5435069 34.288681 9.7392864 34.083708 9.9301432 C 33.928804 10.074197 33.766005 10.212232 33.598466 10.346655 C 33.529616 10.402585 33.461129 10.45868 33.392277 10.514604 C 33.502163 10.573574 33.610032 10.634794 33.721456 10.691854 C 33.789946 10.723994 33.859314 10.759363 33.937463 10.773503 C 33.974353 10.776703 34.001905 10.750373 34.033065 10.738363 C 34.260911 10.622172 34.479673 10.49463 34.704342 10.374561 C 34.817248 10.316591 34.929766 10.255111 35.057292 10.220048 C 35.228965 10.175528 35.427178 10.2286 35.540466 10.340454 C 35.628946 10.424394 35.667466 10.540239 35.644853 10.648962 C 35.634663 10.707642 35.646247 10.769322 35.684127 10.820528 C 35.715227 10.861978 35.74984 10.901586 35.77301 10.946619 C 35.79933 10.992899 35.819041 11.041468 35.831921 11.091313 C 35.871481 11.181693 35.932535 11.265157 35.992118 11.347628 C 36.084538 11.471261 36.187763 11.588741 36.288741 11.707812 C 36.456329 11.90196 36.636467 12.088628 36.810673 12.278837 C 36.842663 12.317747 36.881325 12.356792 36.891805 12.403894 C 36.898605 12.435974 36.856015 12.45269 36.823075 12.45557 C 36.754615 12.46287 36.683745 12.465403 36.615853 12.453503 C 36.515525 12.431823 36.433953 12.376085 36.35282 12.326379 C 36.181282 12.215956 36.018087 12.097663 35.84484 11.988932 C 35.753061 11.929782 35.658978 11.873205 35.563204 11.8184 C 35.373851 11.699505 35.199607 11.565464 35.029903 11.42876 C 34.969373 11.38304 34.912711 11.332361 34.841284 11.297502 C 34.808474 11.280042 34.769074 11.291097 34.741032 11.309387 C 34.682402 11.340317 34.612248 11.353169 34.546212 11.369849 C 34.373997 11.409929 34.196295 11.429713 34.022213 11.463383 C 33.881976 11.488913 33.742533 11.51778 33.606217 11.55485 C 33.562597 11.56616 33.519099 11.577657 33.475476 11.588957 C 33.419646 11.536127 33.367573 11.479897 33.30081 11.435478 C 33.119234 11.309619 32.921541 11.199792 32.723067 11.092346 C 32.523901 10.987117 32.322519 10.883566 32.108634 10.798824 C 32.044045 10.774364 31.977389 10.753638 31.911747 10.731128 C 31.755902 10.985684 31.602388 11.24083 31.444076 11.494389 C 31.218863 11.853444 30.971761 12.204455 30.685465 12.534119 C 30.510608 12.736781 30.323614 12.932015 30.140796 13.129948 L 30.091187 13.183175 C 30.147496 13.267365 30.214531 13.348027 30.2488 13.440523 C 30.2508 13.470213 30.270848 13.494734 30.293758 13.517004 C 30.451283 13.676424 30.644019 13.809455 30.81569 13.958321 C 31.196213 14.280832 31.536317 14.633925 31.8363 15.007869 C 31.91709 15.106849 31.997864 15.206025 32.078662 15.305009 C 32.182663 15.288529 32.287474 15.275076 32.390788 15.255916 C 32.634943 15.205046 32.874497 15.140363 33.113224 15.075049 C 33.265614 15.031699 33.419023 14.989808 33.566427 14.936039 C 33.600997 14.921169 33.634139 14.903848 33.67133 14.893148 C 33.798258 14.852628 33.926887 14.812982 34.060453 14.789278 C 34.202789 14.765068 34.35893 14.75998 34.491435 14.81615 C 34.612335 14.86652 34.687289 14.967102 34.722945 15.070398 C 34.745085 15.125538 34.745442 15.185355 34.776172 15.238346 C 34.841472 15.357977 34.932509 15.466705 35.021635 15.575277 C 35.193227 15.778782 35.374279 15.976711 35.559587 16.172139 C 35.614087 16.227669 35.666609 16.284873 35.727535 16.335954 C 35.759145 16.348064 35.786834 16.308033 35.812284 16.294613 C 35.859394 16.258533 35.901371 16.209152 35.970931 16.202112 C 36.050571 16.193912 36.129355 16.217327 36.209159 16.209347 C 36.360421 16.199447 36.491662 16.127096 36.603451 16.04915 C 36.71937 15.96675 36.825382 15.875445 36.923844 15.779399 C 36.996924 15.707709 37.053561 15.623324 37.072156 15.530835 C 37.095536 15.41984 37.09294 15.306634 37.09231 15.194421 C 37.09145 15.097591 37.073652 14.998669 37.015312 14.912785 C 36.937692 14.796254 36.828874 14.696245 36.72489 14.594975 C 36.380363 14.266057 36.016924 13.948267 35.615914 13.663765 C 35.485365 13.573386 35.352812 13.482684 35.203019 13.413652 C 35.065646 13.353482 34.901665 13.31834 34.747233 13.35319 C 34.593589 13.387 34.475704 13.483262 34.391699 13.588835 C 34.313259 13.685775 34.264038 13.795143 34.198946 13.89786 C 34.132876 14.011316 34.04573 14.1165 33.989657 14.233757 C 33.975417 14.262556 33.97272 14.29366 33.97002 14.32419 C 33.95049 14.37384 33.896637 14.407246 33.849613 14.439945 C 33.765184 14.492825 33.677543 14.5432 33.58193 14.582056 C 33.481385 14.623016 33.36539 14.623132 33.255851 14.616162 C 33.187261 14.612262 33.126141 14.582132 33.077568 14.544332 C 33.017338 14.496802 32.951504 14.451078 32.910136 14.390853 C 32.873476 14.332073 32.87853 14.263542 32.88068 14.19965 C 32.88658 14.10645 32.933875 14.015305 33.014006 13.947986 C 33.091365 13.880156 33.190288 13.832807 33.287891 13.786755 C 33.43297 13.709055 33.565839 13.616788 33.692 13.520105 C 33.808237 13.428575 33.920416 13.332681 34.053735 13.257072 C 34.103765 13.229522 34.161286 13.206186 34.223234 13.206946 C 34.290734 13.194076 34.350685 13.163225 34.408752 13.133565 C 34.482432 13.090995 34.568488 13.058444 34.660417 13.057084 C 34.793794 13.054484 34.923505 13.084278 35.051607 13.110828 C 35.426422 13.193248 35.8016 13.28986 36.137329 13.451375 C 36.459263 13.603961 36.740948 13.804422 37.022546 14.000696 C 37.115856 14.063456 37.205995 14.129598 37.309351 14.181563 C 37.342261 14.197153 37.388538 14.215642 37.423039 14.192932 C 37.462069 14.164142 37.480243 14.121805 37.513472 14.089062 C 37.619109 13.972393 37.778124 13.899459 37.932568 13.832231 C 38.211004 13.714881 38.499787 13.615384 38.786263 13.511837 C 38.935238 13.459137 39.083541 13.404557 39.234298 13.355257 C 39.272558 13.349857 39.276121 13.397856 39.284941 13.419336 C 39.307401 13.501576 39.286482 13.588307 39.239982 13.662732 C 39.162232 13.788349 39.047534 13.895099 38.934058 14.000179 C 38.771541 14.146992 38.600232 14.286918 38.432279 14.42961 L 38.32996 14.51591 C 38.50536 14.6064 38.683978 14.693056 38.850342 14.794446 C 39.04815 14.913628 39.237397 15.041745 39.42395 15.172201 L 40.609408 13.118579 L 39.536088 11.259261 C 39.332442 11.148206 39.11226 11.049059 39.012606 10.851017 C 38.947866 10.721344 38.874593 10.594597 38.794531 10.470679 C 38.752311 10.405949 38.715656 10.338308 38.661206 10.279476 C 38.636616 10.250866 38.592803 10.234499 38.550102 10.242269 C 38.479372 10.253269 38.410869 10.272398 38.341846 10.288778 C 38.257016 10.312858 38.170476 10.337598 38.096383 10.379728 C 37.997763 10.451568 37.872491 10.509443 37.736198 10.506852 C 37.675308 10.505752 37.60062 10.50359 37.561532 10.45931 C 37.522142 10.40952 37.524167 10.347848 37.520707 10.290845 C 37.517907 10.217375 37.523347 10.136175 37.467997 10.073287 C 37.425557 10.027157 37.374185 9.9860646 37.318652 9.950297 C 37.239852 9.9030901 37.137959 9.9015977 37.04425 9.8939697 C 36.909688 9.8845097 36.772078 9.8841675 36.641691 9.8526286 C 36.582311 9.8388646 36.524647 9.8052025 36.51095 9.7539266 C 36.49413 9.6989946 36.506919 9.6410779 36.490279 9.5859782 C 36.450319 9.4125502 36.293392 9.2664404 36.099089 9.191687 C 35.958589 9.1345831 35.799875 9.1210677 35.644853 9.1177897 z M 25.903328 13.606405 L 29.36875 19.608622 L 36.862866 19.608622 L 37.753251 18.066597 C 37.551174 18.134904 37.34772 18.20059 37.14502 18.267619 C 36.956628 18.134142 36.766234 18.002579 36.586397 17.861442 C 36.256019 17.604493 35.936355 17.337999 35.634517 17.058907 C 35.514702 16.94902 35.406144 16.831628 35.286735 16.72146 C 35.042618 16.492167 34.788719 16.269818 34.528125 16.052767 L 34.136934 15.724105 C 33.996231 15.694025 33.856313 15.660991 33.714738 15.633671 C 33.591507 15.610761 33.463095 15.597044 33.3375 15.615584 C 33.113046 15.634684 32.887427 15.642241 32.662089 15.651241 C 32.470001 15.659141 32.277063 15.65998 32.085897 15.67863 C 31.987407 15.68833 31.885443 15.710413 31.812012 15.767513 C 31.69879 15.852143 31.631755 15.969569 31.515389 16.051733 C 31.485779 16.065633 31.453025 16.075644 31.423405 16.089974 C 31.249727 16.168124 31.078031 16.249311 30.911808 16.337504 C 30.884768 16.356664 30.839053 16.369329 30.832743 16.400549 C 30.845703 16.426989 30.880537 16.44115 30.905607 16.45946 C 30.968017 16.50064 31.012477 16.559116 31.033765 16.621724 C 31.052575 16.690804 31.107773 16.748937 31.160372 16.803625 C 31.229452 16.871665 31.30964 16.931001 31.38103 16.997412 C 31.545625 17.146359 31.706054 17.298861 31.854903 17.458366 C 31.878443 17.485996 31.906803 17.512152 31.922083 17.543632 C 31.896573 17.554892 31.857921 17.53813 31.828031 17.53433 C 31.60429 17.48262 31.385531 17.417095 31.167607 17.351396 C 30.966114 17.288896 30.764361 17.226221 30.557308 17.176729 C 30.442981 17.138779 30.340166 17.082084 30.239498 17.024801 C 30.127508 16.958681 30.022079 16.885241 29.907218 16.822229 C 29.872678 16.804759 29.840295 16.78142 29.799731 16.77417 C 29.735712 16.74596 29.683991 16.702856 29.632817 16.661515 C 29.578357 16.616425 29.523161 16.564822 29.512927 16.499768 C 29.502747 16.433078 29.502761 16.364558 29.517061 16.29823 C 29.528501 16.24313 29.565548 16.193333 29.61783 16.157153 C 29.759264 16.052425 29.913589 15.960087 30.066899 15.867249 C 30.303662 15.727137 30.543493 15.589778 30.794503 15.466756 C 30.857583 15.436396 30.922515 15.40864 30.986739 15.37994 C 30.908639 15.28854 30.832609 15.196172 30.753162 15.105538 C 30.601677 14.943932 30.43448 14.792411 30.265853 14.642517 C 30.049847 14.450397 29.815308 14.271984 29.613696 14.069425 C 29.567686 14.020476 29.51746 13.970368 29.501558 13.908712 C 29.467158 13.833762 29.405458 13.767925 29.334127 13.713375 C 29.275177 13.668175 29.206914 13.62416 29.123287 13.61674 C 29.049997 13.60964 28.975623 13.609773 28.902112 13.614673 C 28.809062 13.622073 28.739874 13.67809 28.674736 13.726811 C 28.549995 13.824661 28.427758 13.924597 28.304215 14.023433 C 28.445591 14.164341 28.593428 14.301536 28.719694 14.451831 C 28.789054 14.534951 28.848789 14.628629 28.853536 14.730884 C 28.854736 14.788624 28.858846 14.848752 28.834416 14.904 C 28.803836 14.96331 28.73826 15.003351 28.68197 15.04611 C 28.6376 15.07604 28.594625 15.109603 28.542444 15.130343 C 28.511324 15.122243 28.493444 15.093192 28.470614 15.074532 C 28.374444 14.980022 28.293963 14.875705 28.197245 14.781527 C 28.002772 14.586512 27.796426 14.399023 27.576095 14.222904 C 27.496905 14.160375 27.407867 14.102291 27.300659 14.07511 C 27.220409 14.05479 27.1402 14.034481 27.061914 14.009481 C 26.729981 13.9061 26.402436 13.79344 26.078512 13.674618 C 26.01998 13.652204 25.961243 13.629945 25.903328 13.606405 z M 38.418844 15.262118 C 38.270656 15.254518 38.122626 15.270427 37.974943 15.278137 C 37.960333 15.275837 37.953381 15.283293 37.948071 15.293123 C 37.810829 15.475874 37.6758 15.659826 37.53621 15.84141 C 37.343906 16.090028 37.130732 16.329042 36.880953 16.542143 C 36.71569 16.684609 36.536705 16.815648 36.362638 16.950903 C 36.355338 16.958003 36.337153 16.964251 36.350753 16.973641 C 36.48702 17.155741 36.621413 17.33841 36.76003 17.519344 C 36.79065 17.525844 36.822721 17.512625 36.852531 17.506425 C 37.052906 17.444945 37.250773 17.370184 37.464897 17.345711 C 37.64908 17.324721 37.835368 17.321702 38.020935 17.315222 C 38.076132 17.314077 38.131515 17.315512 38.186816 17.315222 L 39.177454 15.599048 C 39.124514 15.571511 39.071966 15.543232 39.017773 15.517399 C 38.918684 15.467239 38.824062 15.411317 38.73407 15.351001 C 38.64425 15.294431 38.531417 15.267168 38.418844 15.262118 z " /></g></svg>
